<svg height="100" viewBox="0 0 32 32" width="100" xmlns="http://www.w3.org/2000/svg"><g transform="matrix(.97739063 0 0 .97739063 -7.22466458918 -13.32171864)"><path d="m29.372796 28.05916c3.65179 7.479569 4.39975 14.519163 1.62791 15.927083-2.85984 1.45191-8.35952-3.65179-12.31929-11.351347-3.95977-7.743554-4.839722-15.179126-1.93589-16.631042 1.18793-.615964 2.90383 0 4.83972 1.495914m-10.251407 15.355115c-2.1118794-1.099936-3.3438084-2.41986-3.2558134-3.827779.131993-3.211815 7.3035804-5.411689 15.9710804-4.971714 8.6235.439975 15.5311 3.387805 15.39911 6.59962-.13199 1.319924-1.49591 2.551853-3.69579 3.431802m-15.09113 7.523571c-2.33186 1.6719-4.39974 2.28786-5.71967 1.45191-2.639843-1.7599-.96794-9.063476 3.73979-16.27906s10.69138-11.835318 13.37523-10.163414c1.31992.879949 1.58391 2.859835 1.05594 5.499683" fill="none" stroke="#66595c" stroke-linecap="round" stroke-width="1.363921"/><path d="m25.765006 29.582024c.21999 1.05594-.43997 2.111879-1.49591 2.331866s-2.06788-.439975-2.28787-1.495914.43997-2.111878 1.49591-2.331865c1.01194-.219988 2.06788.439974 2.28787 1.495913" fill="#66595c" stroke-width=".439975"/></g></svg>
