<svg height="100" viewBox="0 0 32 32" width="100" xmlns="http://www.w3.org/2000/svg"><path d="M21.484 14.103c3.57 7.31 4.3 14.19 1.591 15.567-2.795 1.42-8.17-3.57-12.04-11.095C7.164 11.007 6.304 3.74 9.141 2.32c1.161-.602 2.838 0 4.73 1.462M3.853 18.79C1.79 17.715.586 16.425.672 15.05c.129-3.14 7.138-5.29 15.61-4.86 8.428.43 15.18 3.311 15.05 6.45-.128 1.29-1.461 2.494-3.612 3.354m-14.75 7.354c-2.279 1.634-4.3 2.236-5.59 1.419-2.58-1.72-.946-8.859 3.655-15.911s10.45-11.568 13.073-9.934c1.29.86 1.548 2.796 1.032 5.376" fill="none" stroke="#66595c" stroke-linecap="round" stroke-width="1.333"/><path d="M17.958 15.591c.215 1.033-.43 2.065-1.462 2.28s-2.021-.43-2.236-1.462.43-2.065 1.462-2.28c.989-.215 2.02.43 2.236 1.462" fill="#66595c"/></svg>